<?xml version="1.0" encoding="utf-8" ?>
<svg xmlns="http://www.w3.org/2000/svg" xmlns:xlink="http://www.w3.org/1999/xlink" width="255" height="48">
	<path fill="#1F456E" transform="translate(224.5 8)" d="M11.430969 0.41637009C12.028193 -0.13879004 12.966689 -0.13879004 13.549693 0.41637009L17.957777 4.5017796L17.957777 3.9039147C17.957777 3.0355871 18.654539 2.3380783 19.521935 2.3380783L21.086094 2.3380783C21.953491 2.3380783 22.650251 3.0355871 22.650251 3.9039147L22.650251 8.8576517L24.498804 10.565836C24.96805 11.007117 25.124466 11.690392 24.896954 12.274021C24.65522 12.871886 24.086433 13.270463 23.44655 13.270463L22.664473 13.270463L22.664473 21.868328C22.664473 23.590748 21.256729 25 19.536156 25L5.4729476 25C3.7523732 25 2.3446305 23.590748 2.3446305 21.868328L2.3446305 13.270463L1.5625513 13.270463C0.92266822 13.270463 0.33966365 12.871886 0.11214969 12.274021C-0.1295839 11.676157 0.026831957 10.992883 0.51029915 10.565836L11.445189 0.40213522L11.445189 0.40213522L11.430969 0.41637009ZM12.255125 16C11.01139 16 10 17.046465 10 18.333334L10 23L16 23L16 18.333334C16 17.046465 14.98861 16 13.744875 16L12.241458 16L12.255125 16Z"/>
	<path fill="#1F456E" transform="translate(219.5 0)" d="M30.244242 21.131346L30.31451 20.807549C28.698299 28.240828 22.008589 36.194996 18.986975 39.475212C18.171843 40.348061 16.83671 40.348061 16.007523 39.475212C12.550236 35.716339 4.3145828 25.875692 4.3145828 17.668114C4.3145828 14.078178 5.7902541 10.840198 8.1653833 8.4891415C10.56862 6.1380858 13.829151 4.6880336 17.49725 4.6880336L17.49725 0C7.8421407 0 0 7.7007637 0 17.217613C0 22.665869 2.7264791 28.635015 6.0572805 33.886177C9.3599739 39.137337 13.238882 43.642353 15.515633 46.134193C16.597792 47.288601 18.396706 47.288601 19.478865 46.134193C23.526423 41.713642 32.520992 31.042385 34.558823 21.117268L30.258295 21.117268L30.244242 21.131346Z"/>
	<path fill="#1F456E" transform="translate(7.62939e-06 5.5)" d="M13.052 24.01L6.552 24.01L5.5640001 27L0.208 27L6.8899999 8.6700001L12.766 8.6700001L19.422001 27L14.04 27L13.052 24.01ZM11.778 20.110001L9.802 14.182L7.8520002 20.110001L11.778 20.110001ZM26.65 22.865999L34.268002 22.865999L34.268002 27L20.93 27L20.93 23.125999L28.469999 12.778L20.93 12.778L20.93 8.6700001L34.268002 8.6700001L34.268002 12.544L26.65 22.865999ZM41.366001 17.796Q41.366001 15.092 42.497002 12.973Q43.627998 10.854 45.708 9.6709995Q47.787998 8.4879999 50.492001 8.4879999Q53.924 8.4879999 56.264 10.321Q58.604 12.154 59.279999 15.3L53.793999 15.3Q53.299999 14.26 52.429001 13.714Q51.557999 13.168 50.414001 13.168Q48.646 13.168 47.592999 14.429Q46.540001 15.69 46.540001 17.796Q46.540001 19.927999 47.592999 21.188999Q48.646 22.450001 50.414001 22.450001Q51.557999 22.450001 52.429001 21.903999Q53.299999 21.358 53.793999 20.318001L59.279999 20.318001Q58.604 23.464001 56.264 25.297001Q53.924 27.129999 50.492001 27.129999Q47.787998 27.129999 45.708 25.947001Q43.627998 24.764 42.497002 22.645Q41.366001 20.525999 41.366001 17.796ZM73.293999 24.01L66.793999 24.01L65.806 27L60.450001 27L67.132004 8.6700001L73.008003 8.6700001L79.664001 27L74.281998 27L73.293999 24.01ZM72.019997 20.110001L70.043999 14.182L68.094002 20.110001L72.019997 20.110001ZM90.610001 27L86.970001 20.24L86.424004 20.24L86.424004 27L81.328003 27L81.328003 8.6700001L89.362 8.6700001Q91.571999 8.6700001 93.106003 9.4370003Q94.639999 10.204 95.419998 11.543Q96.199997 12.882 96.199997 14.546Q96.199997 16.417999 95.172997 17.834999Q94.146004 19.252001 92.169998 19.85L96.304001 27L90.610001 27ZM86.424004 16.756001L88.945999 16.756001Q89.986 16.756001 90.505997 16.261999Q91.026001 15.768 91.026001 14.832Q91.026001 13.948 90.492996 13.441Q89.959999 12.934 88.945999 12.934L86.424004 12.934L86.424004 16.756001ZM103.61 12.752L103.61 15.742L109.46 15.742L109.46 19.615999L103.61 19.615999L103.61 22.917999L110.24 22.917999L110.24 27L98.514 27L98.514 8.6700001L110.24 8.6700001L110.24 12.752L103.61 12.752ZM130.15601 8.6700001L130.15601 12.726L122.824 12.726L122.824 15.95L128.23199 15.95L128.23199 19.823999L122.824 19.823999L122.824 27L117.728 27L117.728 8.6700001L130.15601 8.6700001ZM137.41 8.6700001L137.41 27L132.314 27L132.314 8.6700001L137.41 8.6700001ZM157.3 27L152.20399 27L145.418 16.756001L145.418 27L140.32201 27L140.32201 8.6700001L145.418 8.6700001L152.20399 19.044001L152.20399 8.6700001L157.3 8.6700001L157.3 27ZM167.466 8.6700001Q170.35201 8.6700001 172.52299 9.8269997Q174.694 10.984 175.864 13.064Q177.034 15.144 177.034 17.822001Q177.034 20.474001 175.851 22.554001Q174.668 24.634001 172.49699 25.816999Q170.326 27 167.466 27L160.21201 27L160.21201 8.6700001L167.466 8.6700001ZM167.076 22.502001Q169.312 22.502001 170.586 21.280001Q171.86 20.058001 171.86 17.822001Q171.86 15.56 170.586 14.325Q169.312 13.09 167.076 13.09L165.308 13.09L165.308 22.502001L167.076 22.502001ZM184.418 12.752L184.418 15.742L190.26801 15.742L190.26801 19.615999L184.418 19.615999L184.418 22.917999L191.048 22.917999L191.048 27L179.32201 27L179.32201 8.6700001L191.048 8.6700001L191.048 12.752L184.418 12.752ZM202.85201 27L199.21201 20.24L198.666 20.24L198.666 27L193.57001 27L193.57001 8.6700001L201.604 8.6700001Q203.814 8.6700001 205.34801 9.4370003Q206.882 10.204 207.662 11.543Q208.442 12.882 208.442 14.546Q208.442 16.417999 207.41499 17.834999Q206.388 19.252001 204.412 19.85L208.54601 27L202.85201 27ZM198.666 16.756001L201.188 16.756001Q202.228 16.756001 202.748 16.261999Q203.26801 15.768 203.26801 14.832Q203.26801 13.948 202.735 13.441Q202.202 12.934 201.188 12.934L198.666 12.934L198.666 16.756001Z"/>
	<path fill="white" transform="translate(225.5 13)" d="M0 0C0.8172043 0.90099013 1.4946237 1.9108911 2 3C1.4731183 1.9009901 0.80645162 0.90099013 0 0Z"/>
	<path fill="#0492C2" transform="translate(238.853 0)" d="M15.205882 17.741417C15.205882 18.268826 15.191776 18.796232 15.135354 19.352942L10.833134 19.352942C10.87545 18.972036 10.889556 18.591129 10.889556 18.210224C10.889556 11.559024 6.1782713 6.0505409 0 4.9371243L0 0C8.5903358 1.1573675 15.205882 8.6729307 15.205882 17.756067L15.205882 17.741417Z"/>
</svg>
