<?xml version="1.0" encoding="utf-8" ?>
<svg xmlns="http://www.w3.org/2000/svg" xmlns:xlink="http://www.w3.org/1999/xlink" width="33" height="28">
	<path fill="#086E9D" transform="translate(0.154297 0)" d="M1.9405386 0C1.1595294 0 0.45117229 0.47011259 0.14845555 1.1933627C-0.15426119 1.916613 0.015260183 2.7423236 0.57225901 3.2907882L11.627474 14.302272L11.627474 21.215338C11.627474 21.72764 11.833322 22.215834 12.196582 22.577459L16.071356 26.434793C16.628355 26.989285 17.457798 27.152016 18.184319 26.850662C18.910839 26.549309 19.377022 25.850166 19.377022 25.072672L19.377022 14.302272L30.432238 3.2968154C30.989237 2.7423236 31.152704 1.916613 30.849987 1.1933627C30.54727 0.47011259 29.844967 0 29.063959 0L1.9405386 0Z"/>
</svg>
