<?xml version="1.0" encoding="utf-8" ?>
<svg xmlns="http://www.w3.org/2000/svg" xmlns:xlink="http://www.w3.org/1999/xlink" width="27" height="27">
	<path fill="#086E9D" d="M13.5 27C20.95664 27 27 20.95664 27 13.5C27 6.0433593 20.95664 0 13.5 0C6.0433593 0 0 6.0433593 0 13.5C0 20.95664 6.0433593 27 13.5 27ZM13.5 9.28125C12.566602 9.28125 11.8125 10.035352 11.8125 10.96875C11.8125 11.670117 11.248242 12.234375 10.546875 12.234375C9.8455076 12.234375 9.28125 11.670117 9.28125 10.96875C9.28125 8.6378908 11.169141 6.75 13.5 6.75C15.830859 6.75 17.71875 8.6378908 17.71875 10.96875C17.71875 13.457812 15.820312 14.5125 14.765625 14.897461L14.765625 15.097852C14.765625 15.799219 14.201367 16.363476 13.5 16.363476C12.798633 16.363476 12.234375 15.799219 12.234375 15.097852L12.234375 14.670703C12.234375 13.589648 13.014844 12.814453 13.82168 12.550781C14.15918 12.440039 14.517774 12.260742 14.781446 12.007617C15.008204 11.786133 15.1875 11.480273 15.1875 10.974024C15.1875 10.040625 14.433398 9.2865238 13.5 9.2865238L13.5 9.28125ZM11.8125 19.40625C11.8125 18.472851 12.566602 17.71875 13.5 17.71875C14.433398 17.71875 15.1875 18.472851 15.1875 19.40625C15.1875 20.339649 14.433398 21.09375 13.5 21.09375C12.566602 21.09375 11.8125 20.339649 11.8125 19.40625Z"/>
</svg>
