<?xml version="1.0" encoding="utf-8" ?>
<svg xmlns="http://www.w3.org/2000/svg" xmlns:xlink="http://www.w3.org/1999/xlink" width="121" height="98">
	<path fill="#1F456E" d="M96.800003 3.5L24.200001 3.5C19.189844 3.5 15.125 8.203125 15.125 14L15.125 66.5L12.1 66.5L12.1 14C12.1 6.2781248 17.526094 0 24.200001 0L96.800003 0C103.47391 0 108.9 6.2781248 108.9 14L108.9 66.5L105.875 66.5L105.875 14C105.875 8.203125 101.81016 3.5 96.800003 3.5ZM3.6300001 80.5C3.2896874 80.5 3.0250001 80.806252 3.0250001 81.199997C3.0250001 88.550003 12.888866 95.616539 12.888866 95.292969L106.48 94.5C112.8325 94.5 117.975 88.550003 117.975 81.199997C117.975 80.806252 117.71031 80.5 117.37 80.5L3.6300001 80.5ZM0 81.199997C0 78.881248 1.6259375 77 3.6300001 77L117.37 77C119.37406 77 121 78.881248 121 81.199997C121 90.474998 114.49625 98 106.48 98L14.52 98C6.5037498 98 0 90.474998 0 81.199997Z"/>
</svg>
