<?xml version="1.0" encoding="utf-8" ?>
<svg xmlns="http://www.w3.org/2000/svg" xmlns:xlink="http://www.w3.org/1999/xlink" width="126" height="94">
	<path fill="#1F456E" d="M15.75 3.9166667C9.2285156 3.9166667 3.9375 9.1796875 3.9375 15.666667L3.9375 78.333336C3.9375 84.820312 9.2285156 90.083336 15.75 90.083336L110.25 90.083336C116.77148 90.083336 122.0625 84.820312 122.0625 78.333336L122.0625 15.666667C122.0625 9.1796875 116.77148 3.9166667 110.25 3.9166667L15.75 3.9166667ZM0 15.666667C0 7.0255208 7.0628905 0 15.75 0L110.25 0C118.93711 0 126 7.0255208 126 15.666667L126 78.333336C126 86.97448 118.93711 94 110.25 94L15.75 94C7.0628905 94 0 86.97448 0 78.333336L0 15.666667ZM68.90625 54.833332L104.34375 54.833332C105.42656 54.833332 106.3125 55.714584 106.3125 56.791668C106.3125 57.868752 105.42656 58.75 104.34375 58.75L68.90625 58.75C67.823441 58.75 66.9375 57.868752 66.9375 56.791668C66.9375 55.714584 67.823441 54.833332 68.90625 54.833332ZM66.9375 37.208332C66.9375 36.131248 67.823441 35.25 68.90625 35.25L104.34375 35.25C105.42656 35.25 106.3125 36.131248 106.3125 37.208332C106.3125 38.285416 105.42656 39.166668 104.34375 39.166668L68.90625 39.166668C67.823441 39.166668 66.9375 38.285416 66.9375 37.208332ZM39.375 21.541666C40.457813 21.541666 41.34375 22.422916 41.34375 23.5L41.34375 27.416666L47.25 27.416666C48.332813 27.416666 49.21875 28.297916 49.21875 29.375C49.21875 30.452084 48.332813 31.333334 47.25 31.333334L36.077343 31.333334C32.459766 31.333334 29.53125 34.246353 29.53125 37.844791C29.53125 41.027084 31.844532 43.74427 35.019142 44.282814L44.395313 45.825001C49.464844 46.657291 53.15625 51.014584 53.15625 56.13073C53.15625 61.907814 48.45586 66.558853 42.672657 66.558853L41.34375 66.558853L41.34375 70.475517C41.34375 71.552605 40.457813 72.433853 39.375 72.433853C38.292187 72.433853 37.40625 71.552605 37.40625 70.475517L37.40625 66.558853L29.53125 66.558853C28.448437 66.558853 27.5625 65.677605 27.5625 64.600517C27.5625 63.523438 28.448437 62.642189 29.53125 62.642189L42.672657 62.642189C46.290234 62.642189 49.21875 59.729168 49.21875 56.13073C49.21875 52.948437 46.905468 50.231251 43.730858 49.692707L34.354687 48.15052C29.285156 47.31823 25.59375 42.960938 25.59375 37.844791C25.59375 32.067707 30.29414 27.416666 36.077343 27.416666L37.40625 27.416666L37.40625 23.5C37.40625 22.422916 38.292187 21.541666 39.375 21.541666Z"/>
</svg>
