<?xml version="1.0" encoding="utf-8" ?>
<svg xmlns="http://www.w3.org/2000/svg" xmlns:xlink="http://www.w3.org/1999/xlink" width="110" height="105">
	<path fill="#1F456E" d="M38.601093 3.0888031L12.508709 3.0888031C7.3293219 3.0888031 3.1271772 7.2393823 3.1271772 12.355212L3.1271772 86.486488C3.1271772 91.602318 7.3293219 95.752899 12.508709 95.752899L41.650093 95.752899L41.024658 98.841698L12.508709 98.841698C5.6093745 98.841698 0 93.301155 0 86.486488L0 12.355212C0 5.5405407 5.6093745 0 12.508709 0L38.601093 0C41.923721 0 45.109531 1.2934363 47.454914 3.6100385L71.397369 27.277992C73.742752 29.594595 75.052254 32.741314 75.052254 36.023167L75.052254 51.698841L71.925079 54.787643L71.925079 36.023167C71.925079 35.328186 71.846901 34.652508 71.690536 33.99614L51.598427 33.976833C45.559063 33.976833 40.653305 29.131273 40.653305 23.166023L40.653305 3.3204634C39.988781 3.1660233 39.30471 3.0888031 38.601093 3.0888031ZM49.155319 77.25869C48.19762 78.204636 47.337646 79.227798 46.59494 80.308884L34.398949 80.308884C33.714882 80.308884 33.10899 79.864868 32.893997 79.208496L28.750486 65.559845C28.633217 65.154442 28.242319 64.864868 27.792788 64.864868C27.499615 64.864868 27.206442 65 27.010994 65.231659L15.303624 79.729729C14.756368 80.386101 13.779125 80.50193 13.1146 79.961388C12.450074 79.420853 12.332806 78.455597 12.880061 77.799225L24.626522 63.301159C25.408316 62.335907 26.581007 61.776062 27.831879 61.776062C29.649549 61.776062 31.252228 62.953667 31.77994 64.671814L35.591187 77.220078L49.213951 77.220078L49.174862 77.25869L49.155319 77.25869ZM69.188797 29.459459L45.246346 5.810811C44.796814 5.3667955 44.308193 4.9806948 43.800026 4.6332045L43.800026 23.166023C43.800026 27.432432 47.298557 30.888031 51.61797 30.888031L70.381035 30.888031C70.029228 30.366795 69.638329 29.903475 69.188797 29.459459ZM53.240192 101.83398L64.478485 99.613899C66.296158 99.247101 67.957474 98.37838 69.266975 97.084946L95.183456 71.486488L83.964714 60.405407L58.048229 86.00386C56.738724 87.297295 55.839661 88.938225 55.487854 90.733589L53.240192 101.83398ZM102.55187 64.208496C105.63996 61.158302 105.63996 56.196911 102.55187 53.127415C99.463783 50.057915 94.440758 50.077221 91.333122 53.127415L86.173279 58.223938L97.392029 69.305016L102.55187 64.208496ZM50.093472 101.64093L52.419308 90.135132C52.907932 87.74131 54.100166 85.540543 55.839661 83.822395L89.12455 50.945946C93.44397 46.679535 100.44102 46.679535 104.76044 50.945946C109.07986 55.212357 109.07986 62.12355 104.76044 66.389961L71.475548 99.266411C69.736053 100.98456 67.507942 102.16216 65.084381 102.64479L53.435642 104.94209C53.259739 104.9807 53.064289 105 52.868843 105C51.305252 105 50.015293 103.74517 50.015293 102.18147C50.015293 101.98842 50.034836 101.81467 50.073925 101.62162L50.093472 101.64093Z"/>
</svg>
