<?xml version="1.0" encoding="utf-8" ?>
<svg xmlns="http://www.w3.org/2000/svg" xmlns:xlink="http://www.w3.org/1999/xlink" width="18" height="16">
	<path fill="white" transform="translate(0.357422 0)" d="M12.703125 12.4875C12.10625 11.028125 10.671875 10 9 10L7 10C5.328125 10 3.8937497 11.028125 3.2968745 12.4875C2.1843743 11.31875 1.499999 9.7406254 1.499999 8C1.499999 4.4093752 4.4093742 1.5 7.999999 1.5C11.590624 1.5 14.499999 4.4093752 14.499999 8C14.499999 9.7406254 13.815624 11.31875 12.703124 12.4875L12.703125 12.4875ZM11.449999 13.509376C10.449999 14.1375 9.2687492 14.5 7.999999 14.5C6.7312489 14.5 5.5499992 14.1375 4.546874 13.509375C4.7749991 12.362499 5.787499 11.5 6.999999 11.5L8.999999 11.5C10.212499 11.5 11.224999 12.3625 11.453124 13.509375L11.449999 13.509376ZM7.999999 16C10.858124 16 13.49914 14.475208 14.928203 12C16.357265 9.5247917 16.357265 6.4752088 14.928203 4C13.49914 1.5247917 10.858124 0 7.999999 0C5.1418743 0 2.5008578 1.5247917 1.0717955 4C-0.3572669 6.4752088 -0.3572669 9.5247917 1.0717955 12C2.5008578 14.475208 5.1418743 16 7.999999 16ZM7.999999 7.5C7.5534172 7.5 7.1407585 7.2617512 6.9174671 6.875C6.6941762 6.4882488 6.6941762 6.0117512 6.9174671 5.625C7.1407585 5.2382488 7.5534172 5 7.999999 5C8.4465809 5 8.8592396 5.2382488 9.082531 5.625C9.3058214 6.0117512 9.3058214 6.4882488 9.082531 6.875C8.8592396 7.2617512 8.4465809 7.5 7.999999 7.5ZM5.249999 6.25C5.249999 7.2324805 5.7741461 8.1403294 6.624999 8.6315699C7.475852 9.1228104 8.5241461 9.1228104 9.374999 8.6315699C10.225852 8.1403294 10.749999 7.2324805 10.749999 6.25C10.749999 5.267519 10.225852 4.3596706 9.374999 3.8684301C8.5241461 3.3771896 7.475852 3.3771896 6.624999 3.8684301C5.7741461 4.3596706 5.249999 5.267519 5.249999 6.25Z"/>
</svg>
